<svg width="60" height="46" viewBox="0 0 60 46" fill="none" xmlns="http://www.w3.org/2000/svg">
<path d="M4.39842 19.2932C3.41532 19.2932 2.47249 19.6838 1.77734 20.3789C1.08218 21.0741 0.69165 22.0169 0.69165 23C0.69165 23.9831 1.08218 24.9259 1.77734 25.6211C2.47249 26.3162 3.41532 26.7068 4.39842 26.7068V19.2932ZM56.2932 26.7068C57.2763 26.7068 58.2191 26.3162 58.9143 25.6211C59.6094 24.9259 59.9999 23.9831 59.9999 23C59.9999 22.0169 59.6094 21.0741 58.9143 20.3789C58.2191 19.6838 57.2763 19.2932 56.2932 19.2932V26.7068ZM4.39842 0.759399C3.41532 0.759399 2.47249 1.14993 1.77734 1.84509C1.08218 2.54024 0.69165 3.48307 0.69165 4.46617C0.69165 5.44926 1.08218 6.39209 1.77734 7.08725C2.47249 7.7824 3.41532 8.17294 4.39842 8.17294V0.759399ZM56.2932 8.17294C57.2763 8.17294 58.2191 7.7824 58.9143 7.08725C59.6094 6.39209 59.9999 5.44926 59.9999 4.46617C59.9999 3.48307 59.6094 2.54024 58.9143 1.84509C58.2191 1.14993 57.2763 0.759399 56.2932 0.759399V8.17294ZM4.39842 37.8271C3.41532 37.8271 2.47249 38.2176 1.77734 38.9128C1.08218 39.6079 0.69165 40.5508 0.69165 41.5338C0.69165 42.5169 1.08218 43.4598 1.77734 44.1549C2.47249 44.8501 3.41532 45.2406 4.39842 45.2406V37.8271ZM56.2932 45.2406C57.2763 45.2406 58.2191 44.8501 58.9143 44.1549C59.6094 43.4598 59.9999 42.5169 59.9999 41.5338C59.9999 40.5508 59.6094 39.6079 58.9143 38.9128C58.2191 38.2176 57.2763 37.8271 56.2932 37.8271V45.2406ZM4.39842 26.7068H56.2932V19.2932H4.39842V26.7068ZM4.39842 8.17294H56.2932V0.759399H4.39842V8.17294ZM4.39842 45.2406H56.2932V37.8271H4.39842V45.2406Z" fill="#EAEAEA"/>
</svg>
