<?xml version="1.0" encoding="utf-8"?>
<!-- Generator: Adobe Illustrator 25.2.0, SVG Export Plug-In . SVG Version: 6.00 Build 0)  -->
<svg version="1.1" id="Calque_1" xmlns="http://www.w3.org/2000/svg" xmlns:xlink="http://www.w3.org/1999/xlink" x="0px" y="0px"
	 viewBox="0 0 1436.8 1419.3" style="enable-background:new 0 0 1436.8 1419.3;" xml:space="preserve">
<style type="text/css">
	.st0{fill:#7CA9FF;}
	.st1{fill:#EAEAEA;}
	.st2{fill:#EDA868;}
	.st3{opacity:0.45;fill:url(#SVGID_1_);enable-background:new    ;}
	.st4{fill:#D8AFFF;}
	.st5{fill:url(#SVGID_2_);}
	.st6{opacity:0.5;}
	.st7{fill:url(#SVGID_3_);}
	.st8{opacity:0.45;fill:url(#SVGID_4_);enable-background:new    ;}
	.st9{fill:url(#SVGID_5_);}
	.st10{fill:url(#SVGID_6_);}
	.st11{opacity:0.1;}
	.st12{fill:#1E1E1E;}
	.st13{fill:#FF7D7D;}
	.st14{fill:#3FFFA0;}
</style>
<g id="Calque_3">
</g>
<g id="Calque_1_1_">
	<g id="Calque_4">
		<g id="Calque_5">
		</g>
	</g>
	<g id="Calque_2_1_">
	</g>
	<g>
		<g>
			<polygon class="st0" points="1232.3,918.6 1403.9,1209.3 931.1,1210.7 			"/>
			<path class="st1" d="M1228.5,946.3l145.1,245.7l-399.7,1.2L1228.5,946.3 M1236,890.8l-31.6,30.7l-254.6,246.9l-61.7,59.8
				l85.9-0.3l399.7-1.2l60.5-0.2l-30.8-52.1l-145.1-245.7L1236,890.8L1236,890.8z"/>
		</g>
		<g>
			<path class="st1" d="M740.7,1419.3l-0.5-48.3L1236,890.8l18.6,31.3C1085.6,1085.7,909.8,1255.7,740.7,1419.3z"/>
		</g>
		<polygon class="st2" points="740.2,1371 740.7,1292.6 1204,836.9 1236,890.8 		"/>
		
			<linearGradient id="SVGID_1_" gradientUnits="userSpaceOnUse" x1="988.7483" y1="-344.6582" x2="987.8446" y2="758.8885" gradientTransform="matrix(1 0 0 -1 0 1269.6)">
			<stop  offset="0.407" style="stop-color:#FFFFFF"/>
			<stop  offset="0.8601" style="stop-color:#000000"/>
		</linearGradient>
		<polygon class="st3" points="740.7,1371 740.7,1292.6 1204,836.9 1236,890.8 		"/>
		<path class="st4" d="M740.7,1292.6v-216.8l233.8-83.6L1204,836.9C1034.9,1000.5,909.8,1129,740.7,1292.6z"/>
		<g>
			
				<linearGradient id="SVGID_2_" gradientUnits="userSpaceOnUse" x1="1041.7946" y1="-303.5776" x2="909.5301" y2="659.651" gradientTransform="matrix(1 0 0 -1 0 1269.6)">
				<stop  offset="0.3881" style="stop-color:#FFFFFF"/>
				<stop  offset="1" style="stop-color:#000000"/>
			</linearGradient>
			<path class="st5" d="M740.7,1292.9v-217.1L974,993.6l229.5-155.3C1034.4,1001.9,909.8,1129.3,740.7,1292.9z"/>
		</g>
		<g class="st6">
			
				<linearGradient id="SVGID_3_" gradientUnits="userSpaceOnUse" x1="1292.2437" y1="-8.1262" x2="1088.6205" y2="212.9697" gradientTransform="matrix(1 0 0 -1 0 1269.6)">
				<stop  offset="0.3432" style="stop-color:#FFFFFF"/>
				<stop  offset="1" style="stop-color:#000000"/>
			</linearGradient>
			<polygon class="st7" points="1228.5,946.9 1373.6,1192.6 974,1193.8 			"/>
		</g>
		<g>
			<polygon class="st0" points="37.4,1209.3 218.8,919.5 537.1,1210.7 			"/>
			<path class="st1" d="M222.5,946.3l269.9,246.9l-423.7-1.2L222.5,946.3 M215.2,892.7l-22.1,35.3L39.3,1173.7l-33.1,52.9l62.4,0.2
				l423.7,1.2l89.6,0.2l-66.1-60.5L245.9,920.8L215.2,892.7L215.2,892.7z"/>
		</g>
		<g>
			<path class="st1" d="M740.8,1419.3l0.5-48.3L215.7,890.8l-19.2,31.8C375.7,1086.2,561.5,1255.7,740.8,1419.3z"/>
		</g>
		<path class="st4" d="M740.8,1292.6v-216.8l-248.4-76.6L249.6,836.9C428.9,1000.5,561.5,1129,740.8,1292.6z"/>
		<polygon class="st2" points="740.7,1370.5 740.8,1292.6 249.1,836 215.7,890.8 		"/>
		
			<linearGradient id="SVGID_4_" gradientUnits="userSpaceOnUse" x1="4817.3174" y1="-344.0938" x2="4816.4116" y2="761.5866" gradientTransform="matrix(-0.891 0 0 -1 4770.2686 1269.6)">
			<stop  offset="0.407" style="stop-color:#FFFFFF"/>
			<stop  offset="0.8601" style="stop-color:#000000"/>
		</linearGradient>
		<polygon class="st8" points="741.1,1370 741.1,1291.6 249.9,834.8 215.7,890.8 		"/>
		<g>
			
				<linearGradient id="SVGID_5_" gradientUnits="userSpaceOnUse" x1="4865.3135" y1="-287.9172" x2="4737.1289" y2="645.602" gradientTransform="matrix(-0.891 0 0 -1 4770.2686 1269.6)">
				<stop  offset="0.3881" style="stop-color:#FFFFFF"/>
				<stop  offset="1" style="stop-color:#000000"/>
			</linearGradient>
			<path class="st9" d="M740.8,1292.9v-217.1l-251.6-68.7l-239-168.8C429.4,1001.9,740.8,1292.9,740.8,1292.9z"/>
		</g>
		<g class="st6">
			
				<linearGradient id="SVGID_6_" gradientUnits="userSpaceOnUse" x1="5168.168" y1="-34.6926" x2="4933.7407" y2="219.8506" gradientTransform="matrix(-0.891 0 0 -1 4770.2686 1269.6)">
				<stop  offset="0.3432" style="stop-color:#FFFFFF"/>
				<stop  offset="1" style="stop-color:#000000"/>
			</linearGradient>
			<polygon class="st10" points="222.5,946.9 68.6,1192.6 492.3,1193.8 			"/>
		</g>
		<g>
			<path class="st1" d="M743.8,1076.7c-8.2,0-16.5,0-24.7,0c-0.5-0.1-1-0.4-1.5-0.4c-15.3-0.6-30.5-2.2-45.6-4.3
				c-21.2-2.9-42.1-7.1-62.9-12.2c-37.1-9-73.4-20.9-108.8-35.3c-44-18-86-39.7-125.5-66.3c-32.5-21.9-62.6-46.8-89.2-75.7
				c-25.4-27.5-46.9-57.7-63.2-91.5c-19.5-40.2-30.4-82.6-32.7-127.2c-0.1-2.5-0.6-5.1-1-7.6c0-8.1,0-16.1,0-24.2
				c0.2-0.3,0.4-0.6,0.4-0.9c0.2-2.9,0.4-5.9,0.5-8.8c0.6-17.2,2.2-34.3,4.6-51.3c2.9-20.6,6.9-41.1,12.1-61.2
				c15.2-58.2,39.5-112.4,72.8-162.5c23.1-34.7,49.9-66.3,80.3-94.8c37.4-35.1,79-64.4,124.7-87.7c36.3-18.6,74.2-32.8,113.7-42.8
				c20.8-5.2,41.9-9.2,63.2-12c17-2.2,34-3.6,51-4.2c1.8-0.1,3.7-0.3,5.5-0.5c9.3,0,18.6,0,27.9,0c0.5,0.1,1,0.4,1.5,0.4
				c7.6,0.4,15.2,0.7,22.8,1.2c18,1.1,36,3.4,53.8,6.4c26.9,4.5,53.4,11.1,79.3,19.7c28.4,9.4,55.8,21.1,82.3,35.1
				c46.8,24.7,89,55.6,126.8,92.5c14,13.6,27.1,28,39.5,43.1c24.6,29.9,45.7,62.1,63.4,96.5c13.6,26.5,24.9,54.1,34,82.5
				c11.7,37,19.3,74.8,22.8,113.4c1.3,13.8,1.9,27.7,1.9,41.5c0,0.9,0.2,1.7,0.4,2.6c0,3,0,6.1,0,9.1c-0.1,0.9-0.3,1.9-0.4,2.8
				c-0.2,5.4-0.2,10.9-0.6,16.3c-1.2,17.2-4.1,34.1-8.5,50.7c-9.4,36.3-25.3,69.6-46.1,100.7c-18.6,27.7-40.5,52.6-64.7,75.4
				c-24,22.6-50,42.8-77.4,61.1c-28.3,18.9-57.8,35.6-88.5,50.5c-41,19.8-83.2,36.3-127,48.7c-37.8,10.8-76.2,18.9-115.6,20.7
				C744.6,1076.3,744.2,1076.6,743.8,1076.7z M734.8,139.1c-24.1,0-44.7,1.3-65.4,3.7c-17.3,2.1-34.5,5-51.5,8.9
				c-61,13.9-117.5,38.2-169.6,72.9c-35,23.3-66.6,50.6-94.9,81.8c-31.8,35.1-58.2,73.8-79.1,116.3c-9.9,20.2-18.5,40.9-25.6,62.2
				c-11.6,34.5-19.3,69.9-23.2,106.2c-1.9,17.3-2.9,34.6-2.9,51.9c0,10.3,0.7,20.5,1.4,30.8c1.1,14.9,3.7,29.6,7.3,44.1
				c9,36.4,24.7,69.9,45.9,100.7c21.9,31.8,48.5,59.2,78.3,83.5c31.5,25.7,65.8,47.3,101.9,65.8c41.9,21.5,85.5,38.5,130.8,51.5
				c36.5,10.5,73.5,18.3,111.4,21.9c14.5,1.4,29.1,1.9,43.7,1.3c18-0.7,35.8-3.2,53.5-6.5c28.6-5.3,56.6-13,84.2-22.2
				c37.8-12.6,74.4-28.1,109.8-46.5c39.7-20.6,77.2-44.4,111.9-72.6c26.5-21.5,50.7-45.2,71.8-72.1c18.1-23.1,33.4-48,44.8-75.1
				c9.5-22.6,15.9-45.9,18.9-70.2c1.6-12.8,2.1-25.6,1.9-38.5c-0.3-18.8-1.5-37.5-3.8-56.2c-2.4-19.7-6-39.2-10.8-58.5
				c-14-56.6-37.2-109.2-69.4-157.8c-21.1-31.7-45.4-60.7-73-87c-23-21.9-47.8-41.5-74.5-58.8c-38.1-24.7-78.8-43.9-122.1-57.7
				c-34.4-11-69.5-18.1-105.4-21.6C764.6,139.9,748.1,139,734.8,139.1z"/>
		</g>
		<g>
			<g>
				<polygon class="st4" points="729.6,563.4 729.6,777.2 1173.8,777.2 1050.9,563.4 				"/>
			</g>
			<g class="st11">
				<polygon class="st12" points="729.6,563.4 729.6,777.2 1173.8,777.2 1050.9,563.4 				"/>
			</g>
		</g>
		<g>
			<g>
				<polygon class="st2" points="729.6,563.4 729.6,777.2 280.5,777.2 403.4,563.4 				"/>
			</g>
			<g class="st11">
				<polygon class="st12" points="729.6,563.4 729.6,777.2 280.5,777.2 403.4,563.4 				"/>
			</g>
		</g>
		<g>
			<g>
				<polygon class="st0" points="729.6,563.4 727.2,0 1050.9,563.4 				"/>
			</g>
			<g class="st11">
				<polygon class="st12" points="729.6,563.4 727.2,0 1050.9,563.4 				"/>
			</g>
		</g>
		<g>
			<g>
				<polygon class="st13" points="729.6,563.4 727.2,0 403.4,563.4 				"/>
			</g>
			<g class="st11">
				<polygon class="st12" points="729.6,563.4 727.2,0 403.4,563.4 				"/>
			</g>
		</g>
		<g>
			<path class="st1" d="M727.2,71.8l384.8,669.6H342.4l92.1-160.2L727.2,71.8 M727.2,0L403.4,563.4L280.5,777.2h893.3L727.2,0
				L727.2,0z"/>
		</g>
		<path class="st1" d="M1267.3,573.4l70.2,74.8c4.7,5.2,4.4,13.3-0.8,18.1l-81.5,75.5l4-47.9l45.8-38.4l-33.4-38.2L1267.3,573.4z"/>
		<path class="st1" d="M194.6,569.3l-66.8,74.8c-4.5,5.2-4.2,13.3,0.7,18.1l77.5,75.5l-3.8-47.9l-43.5-38.4l31.8-38.2L194.6,569.3z"
			/>
		<path class="st1" d="M402.6,896.4v-66.8c0-1.4-1.1-2.5-2.5-2.5H377c-1.4,0-2.5-1.1-2.5-2.5v-11c0-1.4,1.1-2.5,2.5-2.5h70.6
			c1.4,0,2.5,1.1,2.5,2.5v11c0,1.4-1.1,2.5-2.5,2.5h-23.3c-1.4,0-2.5,1.1-2.5,2.5v66.8c0,1.4-1.1,2.5-2.5,2.5h-14.2
			C403.7,898.9,402.6,897.8,402.6,896.4z"/>
		<path class="st1" d="M463,896.4v-82.8c0-1.4,1.1-2.5,2.5-2.5h45.6c6.5,0,11.9,1.2,16.2,3.5s7.5,5.5,9.7,9.7
			c2.1,4.1,3.2,8.9,3.2,14.3c0,5.7-1.3,10.8-3.8,15.2c-2.2,3.7-5.2,6.7-9,8.9c-1.2,0.7-1.6,2.1-1,3.3l15,29.4
			c0.8,1.7-0.4,3.6-2.2,3.6h-15.5c-1,0-1.8-0.5-2.2-1.4l-14.1-29.2c-0.4-0.9-1.3-1.4-2.2-1.4h-20.4c-1.4,0-2.5,1.1-2.5,2.5v27
			c0,1.4-1.1,2.5-2.5,2.5h-14.1C464.1,898.9,463,897.8,463,896.4z M482.1,849.3c0,1.4,1.1,2.5,2.5,2.5h24c3.8,0,6.8-1.2,9-3.5
			c2.1-2.3,3.2-5.5,3.2-9.5c0-2.6-0.5-4.8-1.4-6.6c-0.9-1.8-2.3-3.2-4.1-4.2c-1.8-0.9-4-1.4-6.7-1.4h-24c-1.4,0-2.5,1.1-2.5,2.5
			V849.3z"/>
		<path class="st1" d="M556.4,896.4v-82.8c0-1.4,1.1-2.5,2.5-2.5H573c1.4,0,2.5,1.1,2.5,2.5v82.8c0,1.4-1.1,2.5-2.5,2.5h-14.1
			C557.5,898.9,556.4,897.8,556.4,896.4z"/>
		<path class="st1" d="M617.9,897.2l-29.9-82.8c-0.6-1.6,0.6-3.3,2.3-3.3h15.3c1.1,0,2,0.7,2.4,1.7l18.4,54.3
			c0.3,0.9,0.7,2.1,1.2,3.4c0.4,1.3,0.9,2.6,1.3,3.9c0.4,1.1,0.7,2.1,0.9,3.1c0.1,0.2,0.3,0.4,0.5,0.4l0,0c0.2,0,0.4-0.1,0.5-0.3
			c0.3-0.9,0.6-1.8,1-2.9c0.4-1.2,0.8-2.5,1.2-3.8s0.7-2.5,1.1-3.6l18.4-54.5c0.3-1,1.3-1.7,2.4-1.7H669c1.7,0,2.9,1.7,2.3,3.3
			l-30,82.8c-0.4,1-1.3,1.6-2.3,1.6h-18.8C619.2,898.9,618.2,898.2,617.9,897.2z"/>
		<path class="st1" d="M683.7,896.4v-82.8c0-1.4,1.1-2.5,2.5-2.5h14.1c1.4,0,2.5,1.1,2.5,2.5v82.8c0,1.4-1.1,2.5-2.5,2.5h-14.1
			C684.8,898.9,683.7,897.8,683.7,896.4z"/>
		<path class="st1" d="M714.6,895.5l31.9-82.8c0.4-1,1.3-1.6,2.3-1.6h20.1c1,0,2,0.6,2.3,1.6l31.9,82.8c0.6,1.6-0.6,3.4-2.3,3.4
			h-15.2c-1.1,0-2-0.7-2.3-1.6l-5.1-14c-0.4-1-1.3-1.6-2.3-1.6H741c-1.1,0-2,0.7-2.3,1.6l-5.1,14c-0.4,1-1.3,1.6-2.3,1.6h-14.3
			C715.1,898.9,713.9,897.1,714.6,895.5z M748.3,866.3h20.2c1.7,0,2.9-1.7,2.3-3.3l-6.6-18.3c-0.3-0.9-0.7-2.1-1.2-3.4
			c-0.5-1.3-1-2.8-1.5-4.4s-1-3.2-1.5-4.8c-0.4-1.4-0.8-2.8-1.2-3.9c-0.1-0.2-0.3-0.3-0.5-0.3l0,0c-0.2,0-0.4,0.2-0.5,0.4
			c-0.4,1.5-0.9,3.3-1.6,5.3c-0.7,2.2-1.4,4.3-2,6.3c-0.7,2-1.2,3.6-1.7,4.9l-6.6,18.3C745.4,864.5,746.6,866.3,748.3,866.3z"/>
		<path class="st1" d="M814.9,896.4v-82.8c0-1.4,1.1-2.5,2.5-2.5h14.1c1.4,0,2.5,1.1,2.5,2.5v66.5c0,1.4,1.1,2.5,2.5,2.5h39.3
			c1.4,0,2.5,1.1,2.5,2.5v11.3c0,1.4-1.1,2.5-2.5,2.5h-58.3C816,898.9,814.9,897.8,814.9,896.4z"/>
		<path class="st1" d="M890.5,896.4v-82.8c0-1.4,1.1-2.5,2.5-2.5H907c1.4,0,2.5,1.1,2.5,2.5v82.8c0,1.4-1.1,2.5-2.5,2.5H893
			C891.6,898.9,890.5,897.8,890.5,896.4z"/>
		<path class="st1" d="M950.6,896.4v-66.8c0-1.4-1.1-2.5-2.5-2.5h-23.2c-1.4,0-2.5-1.1-2.5-2.5v-11c0-1.4,1.1-2.5,2.5-2.5h70.6
			c1.4,0,2.5,1.1,2.5,2.5v11c0,1.4-1.1,2.5-2.5,2.5h-23.3c-1.4,0-2.5,1.1-2.5,2.5v66.8c0,1.4-1.1,2.5-2.5,2.5h-14.2
			C951.7,898.9,950.6,897.8,950.6,896.4z"/>
		<path class="st1" d="M1033.9,896.4v-32.1c0-0.5-0.1-1-0.4-1.4l-31.1-48c-1.1-1.7,0.1-3.8,2.1-3.8h16.2c0.9,0,1.7,0.4,2.1,1.2
			l20.9,33.9c0.1,0.2,0.3,0.2,0.4,0.2h0.1c0.2,0,0.3-0.1,0.4-0.2l20.7-33.9c0.4-0.7,1.3-1.2,2.1-1.2h14.9c2,0,3.2,2.2,2.1,3.8
			l-30.9,48c-0.3,0.4-0.4,0.9-0.4,1.4v32.1c0,1.4-1.1,2.5-2.5,2.5h-14.2C1035,898.9,1033.9,897.8,1033.9,896.4z"/>
		<path class="st14" d="M453.4,641.1"/>
		<g>
			<polygon class="st1" points="9.2,1221 68.5,1191.6 278.5,857.3 251.8,831.2 			"/>
		</g>
		<g>
			<polygon class="st1" points="1434.3,1226.6 1373.6,1192.1 1175.2,857.2 1188.2,809.1 			"/>
		</g>
	</g>
</g>
</svg>
