<svg width="77" height="68" viewBox="0 0 77 68" fill="none" xmlns="http://www.w3.org/2000/svg">
<path d="M38.3537 28.7655C26.4569 28.7655 9.5893 47.1568 9.5893 58.7659C9.5893 63.9944 13.6058 67.1181 20.337 67.1181C27.654 67.1181 32.4855 63.3607 38.3537 63.3607C44.2729 63.3607 49.1179 67.1181 56.3705 67.1181C63.1016 67.1181 67.1182 63.9944 67.1182 58.7659C67.1182 47.1568 50.2505 28.7655 38.3537 28.7655ZM16.289 26.8763C14.7309 21.6852 9.93087 18.3234 5.56827 19.3661C1.20566 20.4088 -1.06703 25.4621 0.491044 30.6532C2.04912 35.8442 6.84918 39.2061 11.2118 38.1634C15.5744 37.1207 17.8471 32.0674 16.289 26.8763ZM28.9813 23.7632C33.6166 22.5437 35.9357 16.2814 34.1619 9.77647C32.3881 3.27151 27.1925 -1.01169 22.5573 0.207801C17.922 1.42729 15.6029 7.68955 17.3767 14.1945C19.1505 20.6995 24.3476 24.9842 28.9813 23.7632ZM71.1377 19.3676C66.7751 18.3249 61.9765 21.6867 60.417 26.8778C58.8589 32.0689 61.1316 37.1222 65.4942 38.1649C69.8568 39.2076 74.6554 35.8457 76.2149 30.6547C77.773 25.4636 75.5003 20.4103 71.1377 19.3676ZM47.7262 23.7632C52.3614 24.9827 57.557 20.6995 59.3308 14.1945C61.1046 7.68955 58.7855 1.42879 54.1502 0.207801C49.5149 -1.01319 44.3194 3.27151 42.5456 9.77647C40.7717 16.2814 43.0909 22.5437 47.7262 23.7632Z" fill="#151515"/>
</svg>
