<svg width="68" height="67" viewBox="0 0 68 67" fill="none" xmlns="http://www.w3.org/2000/svg">
<path d="M27.301 0.658893C14.2934 3.19761 3.81139 13.6534 1.24651 26.6218C-3.59536 51.0929 18.481 69.335 35.1135 66.757C40.5049 65.9195 43.1483 59.612 40.6751 54.757C37.6522 48.8159 41.9706 41.8802 48.6445 41.8802H59.0742C63.759 41.8802 67.554 38.0068 67.5671 33.335C67.5017 12.7112 48.7361 -3.51559 27.301 0.658893ZM13.1287 41.8802C10.8125 41.8802 8.94116 40.0089 8.94116 37.6927C8.94116 35.3764 10.8125 33.5051 13.1287 33.5051C15.445 33.5051 17.3163 35.3764 17.3163 37.6927C17.3163 40.0089 15.445 41.8802 13.1287 41.8802ZM17.3163 25.13C15 25.13 13.1287 23.2587 13.1287 20.9424C13.1287 18.6262 15 16.7549 17.3163 16.7549C19.6325 16.7549 21.5039 18.6262 21.5039 20.9424C21.5039 23.2587 19.6325 25.13 17.3163 25.13ZM34.0666 16.7549C31.7503 16.7549 29.879 14.8835 29.879 12.5673C29.879 10.251 31.7503 8.37972 34.0666 8.37972C36.3828 8.37972 38.2541 10.251 38.2541 12.5673C38.2541 14.8835 36.3828 16.7549 34.0666 16.7549ZM50.8168 25.13C48.5006 25.13 46.6293 23.2587 46.6293 20.9424C46.6293 18.6262 48.5006 16.7549 50.8168 16.7549C53.1331 16.7549 55.0044 18.6262 55.0044 20.9424C55.0044 23.2587 53.1331 25.13 50.8168 25.13Z" fill="#151515"/>
</svg>
