<svg width="57" height="71" viewBox="0 0 57 71" fill="none" xmlns="http://www.w3.org/2000/svg">
<path d="M2.82032 35.5695L8.85134 38.2409C9.43107 38.4977 10.0565 38.6361 10.6908 38.648C11.3251 38.66 11.9554 38.5452 12.5445 38.3104L14.4415 37.5531C15.1045 37.2888 15.6993 36.8789 16.1814 36.3539C16.6635 35.8289 17.0206 35.2023 17.2262 34.5208L18.5948 29.9871C18.7193 29.4902 18.9503 29.026 19.2719 28.6264C19.5934 28.2269 19.9979 27.9013 20.4577 27.6722L23.7411 26.0333V33.478C23.7414 34.7967 23.3731 36.0894 22.6775 37.2112C21.982 38.333 20.9866 39.2397 19.8031 39.8295L11.3095 44.0673C9.33774 45.0509 7.67975 46.562 6.52123 48.4315C5.3627 50.301 4.7494 52.455 4.75001 54.6522V56.8H52.2292V28.4C52.2292 12.7208 39.4755 0 23.7411 0H1.78126C1.30884 0 0.855776 0.187008 0.521727 0.519885C0.187678 0.852762 1.07123e-05 1.30424 1.07123e-05 1.775C-0.000230964 2.16425 0.0907527 2.54818 0.265714 2.89621L2.37501 7.1L1.03907 8.43125C0.708533 8.76177 0.446626 9.15399 0.268334 9.58547C0.090042 10.0169 -0.00113758 10.4792 1.07123e-05 10.9458V31.2415C-0.000552718 32.1575 0.265611 33.0539 0.766221 33.8222C1.26683 34.5904 1.98038 35.1974 2.82032 35.5695ZM7.71876 14.2C8.30592 14.2 8.8799 14.3735 9.36811 14.6986C9.85632 15.0236 10.2368 15.4857 10.4615 16.0262C10.6862 16.5668 10.745 17.1616 10.6305 17.7355C10.5159 18.3093 10.2332 18.8365 9.81798 19.2502C9.40279 19.6639 8.87381 19.9457 8.29793 20.0598C7.72205 20.174 7.12514 20.1154 6.58267 19.8915C6.0402 19.6676 5.57654 19.2884 5.25033 18.8019C4.92412 18.3154 4.75001 17.7434 4.75001 17.1583C4.75001 16.3737 5.06279 15.6213 5.61954 15.0665C6.17628 14.5117 6.9314 14.2 7.71876 14.2ZM54.625 61.5333H2.37501C1.74512 61.5333 1.14103 61.7827 0.695632 62.2265C0.250233 62.6703 1.07123e-05 63.2723 1.07123e-05 63.9V68.6333C1.07123e-05 69.261 0.250233 69.863 0.695632 70.3068C1.14103 70.7507 1.74512 71 2.37501 71H54.625C55.2549 71 55.859 70.7507 56.3044 70.3068C56.7498 69.863 57 69.261 57 68.6333V63.9C57 63.2723 56.7498 62.6703 56.3044 62.2265C55.859 61.7827 55.2549 61.5333 54.625 61.5333Z" fill="#151515"/>
</svg>
