<svg width="63" height="71" viewBox="0 0 63 71" fill="none" xmlns="http://www.w3.org/2000/svg">
<path d="M63 49.9219V3.32812C63 1.48379 61.4953 0 59.625 0H13.5C6.04688 0 0 5.96289 0 13.3125V57.6875C0 65.0371 6.04688 71 13.5 71H59.625C61.4953 71 63 69.5162 63 67.6719V65.4531C63 64.4131 62.5078 63.4701 61.7484 62.86C61.1578 60.7244 61.1578 54.6367 61.7484 52.5012C62.5078 51.9049 63 50.9619 63 49.9219ZM18 18.582C18 18.1244 18.3797 17.75 18.8438 17.75H48.6562C49.1203 17.75 49.5 18.1244 49.5 18.582V21.3555C49.5 21.8131 49.1203 22.1875 48.6562 22.1875H18.8438C18.3797 22.1875 18 21.8131 18 21.3555V18.582ZM18 27.457C18 26.9994 18.3797 26.625 18.8438 26.625H48.6562C49.1203 26.625 49.5 26.9994 49.5 27.457V30.2305C49.5 30.6881 49.1203 31.0625 48.6562 31.0625H18.8438C18.3797 31.0625 18 30.6881 18 30.2305V27.457ZM53.6344 62.125H13.5C11.0109 62.125 9 60.142 9 57.6875C9 55.2469 11.025 53.25 13.5 53.25H53.6344C53.3672 55.6213 53.3672 59.7537 53.6344 62.125Z" fill="#151515"/>
</svg>
