<svg width="59" height="68" viewBox="0 0 59 68" fill="none" xmlns="http://www.w3.org/2000/svg">
<path d="M29.4692 33.6791C38.7704 33.6791 46.3087 26.1407 46.3087 16.8395C46.3087 7.53832 38.7704 0 29.4692 0C20.168 0 12.6297 7.53832 12.6297 16.8395C12.6297 26.1407 20.168 33.6791 29.4692 33.6791ZM41.2569 37.889H39.0598C36.1392 39.2309 32.8897 39.9939 29.4692 39.9939C26.0487 39.9939 22.8123 39.2309 19.8785 37.889H17.6815C7.91984 37.889 0 45.8088 0 55.5705V61.0433C0 64.5296 2.82852 67.3581 6.31483 67.3581H52.6235C56.1099 67.3581 58.9384 64.5296 58.9384 61.0433V55.5705C58.9384 45.8088 51.0185 37.889 41.2569 37.889Z" fill="#151515"/>
</svg>
