<svg width="77" height="61" viewBox="0 0 77 61" fill="none" xmlns="http://www.w3.org/2000/svg">
<path d="M74.1844 49.4563H45.3595C45.2715 51.8114 43.6107 53.2606 41.4672 53.2606H34.2389C32.017 53.2606 30.3134 51.1837 30.3431 49.4563H1.90216C0.855974 49.4563 0 50.3122 0 51.3584V53.2606C0 57.4453 3.42389 60.8692 7.60865 60.8692H68.4779C72.6626 60.8692 76.0865 57.4453 76.0865 53.2606V51.3584C76.0865 50.3122 75.2306 49.4563 74.1844 49.4563ZM68.4779 5.70649C68.4779 2.56792 65.91 0 62.7714 0H13.3151C10.1766 0 7.60865 2.56792 7.60865 5.70649V45.6519H68.4779V5.70649ZM60.8692 38.0433H15.2173V7.60865H60.8692V38.0433Z" fill="#151515"/>
</svg>
