<svg width="64" height="68" viewBox="0 0 64 68" fill="none" xmlns="http://www.w3.org/2000/svg">
<path d="M31.2438 37.5368H31.3649C31.0782 36.8515 30.7066 36.1854 30.2708 35.5797L2.39624 19.6638C1.46908 19.9888 0.875 20.9654 0.875 22.4459V47.1246C0.875 49.7175 2.69532 52.8705 4.94074 54.1671L27.9347 67.4452C29.2998 68.2334 30.5069 68.1529 31.2442 67.3866V37.5368H31.2441H31.2438ZM17.1308 54.8973L12.5414 52.2474V47.4379L17.1307 50.0877V54.8973H17.1308ZM21.0336 44.2615C20.703 44.7642 20.1393 45.1863 19.3429 45.528L18.5294 45.8282C17.9531 46.0539 17.5759 46.2867 17.398 46.5261C17.2201 46.7567 17.1311 47.0746 17.1311 47.4799V48.0879L12.5414 45.4384V44.7763C12.5414 44.0377 12.6812 43.4655 12.9609 43.0595C13.2405 42.6445 13.8296 42.255 14.7279 41.8909L15.5414 41.5772C16.0245 41.3877 16.3761 41.1494 16.5965 40.8623C16.8253 40.5801 16.9398 40.2317 16.9398 39.8175C16.9398 39.187 16.7363 38.5787 16.3295 37.9926C15.9228 37.3974 15.3548 36.8895 14.626 36.4687C13.9394 36.0723 13.1979 35.7972 12.4013 35.6435C11.6046 35.4808 10.7741 35.4471 9.90959 35.5424V31.3002C10.9351 31.514 11.8716 31.7755 12.7191 32.0847C13.5665 32.394 14.3843 32.776 15.1726 33.231C17.2405 34.4251 18.817 35.7855 19.9017 37.3125C20.9866 38.8306 21.529 40.4497 21.529 42.1702C21.5291 43.0524 21.3639 43.7496 21.0333 44.2613L21.0336 44.2615ZM59.9221 14.8016L36.0172 0.973761C33.7727 -0.324587 30.1339 -0.324587 27.8894 0.973761L3.98473 14.8017C2.06989 15.9093 1.7901 17.6038 3.14268 18.8838L29.6716 34.0315C31.1348 34.3972 32.8069 34.3947 34.2673 34.0234L60.825 18.8258C62.1084 17.5529 61.8078 15.8925 59.9218 14.8017L59.9221 14.8016ZM32.8221 20.2447L32.2444 19.921C31.6001 19.5602 31.1888 19.1522 31.0106 18.6972C30.8245 18.2377 30.8556 17.5072 31.1037 16.5054L31.3422 15.6058C31.4809 15.0702 31.4946 14.6311 31.3828 14.2886C31.2808 13.9408 31.0489 13.6657 30.6874 13.4632C30.1372 13.155 29.4785 13.0442 28.711 13.1309C27.9357 13.213 27.1349 13.4854 26.3089 13.9483C25.5309 14.3841 24.8241 14.9298 24.1883 15.5853C23.5448 16.2364 22.9924 16.9817 22.5313 17.8212L18.8301 15.7474C19.6623 14.9114 20.4798 14.1803 21.2832 13.5542C22.0865 12.928 22.935 12.3648 23.8282 11.8643C26.1718 10.5513 28.3513 9.77041 30.3665 9.52196C32.3739 9.26905 34.1282 9.56311 35.6292 10.4038C36.3993 10.8354 36.9036 11.3276 37.142 11.8809C37.3726 12.4297 37.386 13.153 37.1826 14.0507L36.9324 14.9437C36.7666 15.5826 36.732 16.0422 36.829 16.3225C36.9179 16.5984 37.1393 16.8355 37.4929 17.0335L38.0235 17.3305L32.8223 20.2448L32.8221 20.2447ZM38.763 23.5731L34.5665 21.2221L39.7677 18.3081L43.9641 20.6591L38.7631 23.5731H38.763ZM61.5183 19.6357L33.7801 35.5088C33.3199 36.1366 32.9282 36.8315 32.6296 37.5476V67.2427C33.3503 68.1401 34.6193 68.2802 36.0657 67.4452L59.0594 54.1673C61.3048 52.8706 63.1251 49.7176 63.1251 47.1246V22.4461C63.1251 20.9206 62.4944 19.9297 61.5182 19.6358L61.5183 19.6357ZM49.9816 53.509L45.3924 56.1586V51.3488L49.9817 48.6991V53.509L49.9816 53.509ZM53.8845 38.3666C53.5539 39.251 52.9903 40.324 52.1938 41.5856L51.3801 42.8254C50.8039 43.7166 50.4267 44.3846 50.2487 44.8296C50.0708 45.2656 49.9818 45.6863 49.9818 46.0915V46.6996L45.3924 49.3492V48.6871C45.3924 47.9485 45.5323 47.2147 45.8119 46.4858C46.0915 45.7479 46.6806 44.6783 47.5789 43.277L48.3924 42.0236C48.8755 41.2763 49.2271 40.6319 49.4475 40.0904C49.6764 39.5439 49.7908 39.0636 49.7908 38.6491C49.7908 38.0187 49.5873 37.6453 49.1806 37.5289C48.7738 37.4035 48.2058 37.5513 47.477 37.972C46.7904 38.3685 46.0488 38.9496 45.2522 39.7159C44.4556 40.4732 43.625 41.3986 42.7606 42.4921V38.2503C43.7861 37.2798 44.7226 36.46 45.57 35.7904C46.4175 35.1211 47.2353 34.5587 48.0236 34.1037C50.0915 32.9098 51.668 32.45 52.7527 32.7243C53.8377 32.9896 54.38 33.9826 54.38 35.7029C54.3803 36.5854 54.2151 37.4734 53.8845 38.3668V38.3666Z" fill="#151515"/>
</svg>
