<svg width="70" height="72" viewBox="0 0 70 72" fill="none" xmlns="http://www.w3.org/2000/svg">
<path d="M0 40.8083C0 57.6094 13.6196 71.229 30.4207 71.229C47.2218 71.229 60.8414 57.6094 60.8414 40.8083C60.6337 34.8547 59.0102 29.3226 56.2976 24.482L56.3896 24.663C54.9442 22.7844 54.0717 20.3982 54.0717 17.8102C54.0717 12.6164 59.5504 7.41968 65.2903 7.41968H66.0233C68.0326 7.36626 69.6412 5.72503 69.6412 3.70984C69.6412 1.69466 68.0326 0.0534217 66.0293 0H66.0233H65.2813C56.1551 0 48.3467 4.86731 46.4947 14.8394C42.2744 12.0377 37.0925 10.3668 31.5218 10.3668C31.13 10.3668 30.7442 10.3757 30.3554 10.3905L30.4118 10.3876C13.6166 10.3965 0.00593575 24.0101 0.00296787 40.8053L0 40.8083ZM26.7109 40.8083C26.7109 38.7604 28.3729 37.1014 30.4207 37.1014C32.4685 37.1014 34.1305 38.7604 34.1305 40.8112C34.1305 42.862 32.4715 44.5211 30.4207 44.5211C30.4177 44.5211 30.4148 44.5211 30.4118 44.5211C28.3669 44.5151 26.7138 42.8561 26.7138 40.8112V40.8083H26.7109ZM7.41968 40.8083C7.42562 37.1281 10.4083 34.1484 14.0885 34.1484C17.7687 34.1484 20.7573 37.134 20.7573 40.8172C20.7573 44.5003 17.7716 47.486 14.0885 47.486C12.2484 47.486 10.5805 46.741 9.37254 45.5331C8.16462 44.3252 7.41968 42.6572 7.41968 40.8172C7.41968 40.8142 7.41968 40.8112 7.41968 40.8083ZM40.0663 40.8083C40.0722 37.1281 43.0549 34.1484 46.7351 34.1484C50.4153 34.1484 53.4039 37.134 53.4039 40.8172C53.4039 44.5003 50.4182 47.486 46.7351 47.486C44.895 47.486 43.2271 46.741 42.0192 45.5331C40.8112 44.3252 40.0663 42.6572 40.0663 40.8172C40.0663 40.8142 40.0663 40.8112 40.0663 40.8083ZM23.743 57.1316C23.743 53.4425 26.7346 50.4538 30.4207 50.4538C34.1068 50.4538 37.0984 53.4455 37.0984 57.1316C37.0984 60.8206 34.1068 63.8093 30.4207 63.8093C30.4177 63.8093 30.4118 63.8093 30.4088 63.8093C26.7257 63.8033 23.743 60.8147 23.743 57.1316ZM23.743 24.485C23.7489 20.8048 26.7316 17.825 30.4118 17.825C34.092 17.825 37.0806 20.8107 37.0806 24.4939C37.0806 28.177 34.0949 31.1627 30.4118 31.1627C28.5688 31.1627 26.8978 30.4148 25.6929 29.2039C24.4879 27.996 23.743 26.331 23.743 24.4909C23.743 24.4879 23.743 24.485 23.743 24.482V24.485Z" fill="#151515"/>
</svg>
