<svg width="68" height="68" viewBox="0 0 68 68" fill="none" xmlns="http://www.w3.org/2000/svg">
<path fill-rule="evenodd" clip-rule="evenodd" d="M62.1157 26.9331C62.067 30.2341 62.0239 33.1413 63.6831 36.5798C63.6831 36.5798 68.588 40.9925 67.9412 44.5326C67.2945 48.073 60.9072 49.0478 60.9072 49.0478C60.9072 63.352 47.2477 62.4414 40.43 61.0961C40.2921 61.0689 40.1568 61.0415 40.0248 61.0139C37.9846 60.5902 36.6522 60.1532 36.6522 60.1532V62.8412C36.6522 62.8412 36.5101 63.2915 36.0721 63.9255C35.9557 64.0939 35.8184 64.2753 35.6573 64.4645C34.3781 65.9677 31.599 67.972 25.8721 67.972C21.5575 68.3137 14.1725 65.4895 12.2149 61.5071V49.3272C5.31573 44.1707 0 37.2241 0 28.2194C0 20.7353 3.12331 13.5575 8.68284 8.2654C14.2424 2.97315 21.7827 2.51911e-05 29.6452 2.51911e-05C35.6492 -0.0064537 41.582 1.23687 47.0278 3.64292C51.3198 5.36333 55.0773 8.10126 57.9428 11.5957C60.5593 15.2666 62.0096 19.5774 62.1201 24.0123C62.1439 25.0314 62.1295 25.9983 62.1157 26.9331ZM40.5157 29.9961C40.2212 30.3255 40.0677 30.4974 39.1432 30.4974C37.6833 30.4974 36.2572 30.0688 35.0513 29.2678C34.2047 30.1408 33.1666 30.8172 32.0146 31.2462C31.8678 31.3166 31.7329 31.3914 31.6077 31.471C30.9543 31.8854 30.5677 32.4207 30.172 33.0516C30.1047 33.1591 30.0371 33.2692 29.9678 33.3819C29.8688 33.5433 29.766 33.7108 29.6565 33.8825C28.9332 35.0156 28.5507 36.3235 28.5524 37.6574V45.1705H20.7778C20.5821 43.561 20.2145 42.0145 19.3237 40.6451C18.4331 39.2755 17.2382 38.1176 15.827 37.2568C14.6022 36.7444 13.5448 35.9159 12.7691 34.8609C11.9935 33.806 11.529 32.5646 11.4263 31.2713C10.1515 29.958 9.44217 28.2192 9.44463 26.4127C9.43481 24.8551 9.96011 23.3389 10.9372 22.1053C10.7574 21.4948 10.6707 20.8618 10.68 20.227C10.6775 18.7083 11.1764 17.2291 12.1029 16.0072L15.827 13.44C16.3984 12.1899 17.3292 11.1274 18.5075 10.3808C19.6856 9.63428 21.0607 9.23554 22.4666 9.2327C23.0475 9.2361 23.6258 9.30335 24.191 9.43293C25.387 8.34851 26.9233 7.68721 28.5524 7.55556L36.465 8.09181C38.2111 8.5119 39.7375 9.54191 40.7545 10.9858H41.2692L45.8407 12.5426C47.1374 13.5539 48.0397 14.9664 48.3978 16.5455C49.9666 17.2083 51.254 18.3753 52.0443 19.8515C52.8347 21.3274 53.08 23.0229 52.7393 24.654C52.3987 26.2848 51.4928 27.7527 50.173 28.8114L45.4897 30.4698C44.0154 30.4865 42.5706 30.0673 41.3463 29.2678C40.9041 29.5615 40.6863 29.8053 40.5157 29.9961ZM52.8889 36.8333C52.8889 38.3981 51.6203 39.6667 50.0555 39.6667C48.4908 39.6667 47.2222 38.3981 47.2222 36.8333C47.2222 35.2686 48.4908 34 50.0555 34C51.6203 34 52.8889 35.2686 52.8889 36.8333ZM28.3333 49.1111V52.8889H20.7778V49.1111H28.3333ZM20.7778 56.6667V60.4444H28.3333V56.6667H20.7778Z" fill="#151515"/>
</svg>
