<svg width="64" height="73" viewBox="0 0 64 73" fill="none" xmlns="http://www.w3.org/2000/svg">
<path d="M36.7201 45.8056C36.7201 29.0556 23.6923 10.4444 10.6645 10.4444M6.94229 32.7778C21.8312 36.5 41.8046 24.105 44.1645 10.4444M49.7478 25.3333C49.7478 28.2662 49.1702 31.1703 48.0478 33.8799C46.9255 36.5895 45.2804 39.0515 43.2066 41.1254C41.1327 43.1992 38.6707 44.8443 35.9611 45.9666C33.2515 47.089 30.3474 47.6667 27.4145 47.6667C24.4817 47.6667 21.5775 47.089 18.8679 45.9666C16.1583 44.8443 13.6963 43.1992 11.6225 41.1254C9.54862 39.0515 7.90356 36.5895 6.7812 33.8799C5.65885 31.1703 5.08118 28.2662 5.08118 25.3333C5.08118 19.4102 7.43415 13.7296 11.6225 9.54128C15.8108 5.35297 21.4913 3 27.4145 3C33.3377 3 39.0182 5.35297 43.2066 9.54128C47.3949 13.7296 49.7478 19.4102 49.7478 25.3333Z" stroke="#151515" stroke-width="6"/>
<path d="M3.22009 51.3889C8.80343 55.1111 16.2479 58.8333 25.5534 58.8333C47.8868 58.8333 60.9145 43.9444 60.9145 23.4722C60.9145 14.1667 57.1923 6.72222 53.4701 3M46.0256 55.1111V70M46.0256 70H32.9979M46.0256 70H57.1923" stroke="#151515" stroke-width="6" stroke-linecap="round"/>
</svg>
