<svg width="88" height="67" viewBox="0 0 88 67" fill="none" xmlns="http://www.w3.org/2000/svg">
<path d="M66.03 0C58.2265 0 49.8226 1.61009 44.02 6.03785C38.2174 1.61009 29.8136 0 22.01 0C16.2074 0 10.0446 0.885551 4.88222 3.17993C1.96089 4.50826 0 7.36618 0 10.6266V56.0312C0 61.264 4.88222 65.1283 9.92451 63.8402C13.8463 62.8339 18.0082 62.3911 22.01 62.3911C28.2528 62.3911 34.8959 63.4377 40.2583 66.0943C42.6594 67.3019 45.3806 67.3019 47.7417 66.0943C53.1041 63.3974 59.7472 62.3911 65.99 62.3911C69.9918 62.3911 74.1537 62.8339 78.0755 63.8402C83.1178 65.1685 88 61.3043 88 56.0312V10.6266C88 7.36618 86.0391 4.50826 83.1178 3.17993C77.9955 0.885551 71.8327 0 66.03 0ZM80.0364 51.2412C80.0364 53.7771 77.7153 55.6287 75.2342 55.1859C72.2328 54.6224 69.1114 54.3809 66.03 54.3809C59.2269 54.3809 49.4225 56.9973 44.02 60.4187V14.0883C49.4225 10.6669 59.2269 8.05047 66.03 8.05047C69.7117 8.05047 73.3533 8.41274 76.8349 9.17753C78.6758 9.58006 80.0364 11.2304 80.0364 13.1223V51.2412Z" fill="#151515"/>
<path d="M52.0845 26C50.764 26 49.5672 25.2 49.1546 23.9201C48.6181 22.3602 49.526 20.6402 51.1353 20.1603C57.4903 18.1604 65.7023 17.5204 73.254 18.3603C74.9459 18.5603 76.1839 20.0403 75.9775 21.6802C75.7712 23.3201 74.2443 24.5201 72.5524 24.3201C65.8673 23.5601 58.5632 24.1601 53.0336 25.88C52.7035 25.92 52.3733 26 52.0845 26Z" fill="#151515"/>
<path d="M52.0845 37C50.764 37 49.5672 36.1 49.1546 34.6601C48.6181 32.9052 49.526 30.9703 51.1353 30.4303C57.4491 28.1804 65.7023 27.4604 73.254 28.4054C74.9459 28.6304 76.1839 30.2953 75.9775 32.1402C75.7712 33.9851 74.2443 35.3351 72.5524 35.1101C65.8673 34.2551 58.5632 34.9301 53.0336 36.865C52.7035 36.955 52.3733 37 52.0845 37Z" fill="#151515"/>
<path d="M52.0845 48C50.764 48 49.5672 47.2 49.1546 45.9201C48.6181 44.3602 49.526 42.6402 51.1353 42.1603C57.4491 40.1604 65.7023 39.5204 73.254 40.3603C74.9459 40.5603 76.1839 42.0403 75.9775 43.6802C75.7712 45.3201 74.2443 46.4801 72.5524 46.3201C65.8673 45.5601 58.5632 46.1601 53.0336 47.88C52.7035 47.96 52.3733 48 52.0845 48Z" fill="#151515"/>
</svg>
