<svg width="58" height="67" viewBox="0 0 58 67" fill="none" xmlns="http://www.w3.org/2000/svg">
<path d="M51.7857 0H6.21429C2.9 0 0 2.93125 0 6.28125V60.7188C0 64.0687 2.9 67 6.21429 67H51.7857C55.1 67 58 64.0687 58 60.7188V6.28125C58 2.93125 55.1 0 51.7857 0ZM16.5714 56.95C16.5714 57.7875 15.7429 58.625 14.9143 58.625H9.94286C9.11429 58.625 8.28571 57.7875 8.28571 56.95V51.925C8.28571 51.0875 9.11429 50.25 9.94286 50.25H14.9143C15.7429 50.25 16.5714 51.0875 16.5714 51.925V56.95ZM16.5714 40.2C16.5714 41.0375 15.7429 41.875 14.9143 41.875H9.94286C9.11429 41.875 8.28571 41.0375 8.28571 40.2V35.175C8.28571 34.3375 9.11429 33.5 9.94286 33.5H14.9143C15.7429 33.5 16.5714 34.3375 16.5714 35.175V40.2ZM33.1429 56.95C33.1429 57.7875 32.3143 58.625 31.4857 58.625H26.5143C25.6857 58.625 24.8571 57.7875 24.8571 56.95V51.925C24.8571 51.0875 25.6857 50.25 26.5143 50.25H31.4857C32.3143 50.25 33.1429 51.0875 33.1429 51.925V56.95ZM33.1429 40.2C33.1429 41.0375 32.3143 41.875 31.4857 41.875H26.5143C25.6857 41.875 24.8571 41.0375 24.8571 40.2V35.175C24.8571 34.3375 25.6857 33.5 26.5143 33.5H31.4857C32.3143 33.5 33.1429 34.3375 33.1429 35.175V40.2ZM49.7143 56.95C49.7143 57.7875 48.8857 58.625 48.0571 58.625H43.0857C42.2571 58.625 41.4286 57.7875 41.4286 56.95V35.175C41.4286 34.3375 42.2571 33.5 43.0857 33.5H48.0571C48.8857 33.5 49.7143 34.3375 49.7143 35.175V56.95ZM49.7143 23.45C49.7143 24.2875 48.8857 25.125 48.0571 25.125H9.94286C9.11429 25.125 8.28571 24.2875 8.28571 23.45V10.05C8.28571 9.2125 9.11429 8.375 9.94286 8.375H48.0571C48.8857 8.375 49.7143 9.2125 49.7143 10.05V23.45Z" fill="#151515"/>
</svg>
