<svg width="65" height="71" viewBox="0 0 65 71" fill="none" xmlns="http://www.w3.org/2000/svg">
<path d="M64.971 47.3735V3.95695C64.9682 3.3641 64.8279 2.77948 64.5604 2.2465C64.2929 1.71352 63.9052 1.24589 63.4261 0.878322C62.9537 0.507392 62.4017 0.24394 61.8107 0.107333C61.2197 -0.0292742 60.6046 -0.0355626 60.0108 0.088929L23.4186 7.98285C22.5153 8.18061 21.7086 8.67181 21.1319 9.37517C20.5552 10.0785 20.2432 10.9519 20.2473 11.8509V44.7685C17.4717 43.4965 14.3461 43.1324 11.3393 43.731C8.33253 44.3295 5.60673 45.8583 3.57082 48.0882C1.53492 50.318 0.298682 53.1285 0.047578 56.0982C-0.203526 59.0678 0.54404 62.0364 2.17813 64.5587C3.81221 67.081 6.24471 69.0209 9.11071 70.0874C11.9767 71.1539 15.1217 71.2895 18.0738 70.4739C21.0259 69.6583 23.626 67.9354 25.484 65.5637C27.342 63.192 28.3578 60.2994 28.3789 57.3199C28.421 56.6364 28.421 55.951 28.3789 55.2675V15.0084L56.8395 8.89065V36.8746C54.0623 35.6018 50.9348 35.238 47.9265 35.8379C44.9182 36.4378 42.1916 37.9689 40.1561 40.2014C38.1207 42.4338 36.8863 45.2471 36.6383 48.2187C36.3903 51.1903 37.1421 54.1598 38.7808 56.6812C40.4195 59.2027 42.8566 61.1399 45.7262 62.2021C48.5958 63.2643 51.7429 63.394 54.6949 62.5718C57.6469 61.7495 60.2444 60.0198 62.0974 57.6423C63.9503 55.2647 64.9587 52.3678 64.971 49.3865C65.0096 48.716 65.0096 48.044 64.971 47.3735Z" fill="#151515"/>
</svg>
