<svg width="62" height="67" viewBox="0 0 62 67" fill="none" xmlns="http://www.w3.org/2000/svg">
<path d="M61.669 16.644H0.0385681C0.017279 16.644 0 16.6253 0 16.6024V10.4323C0 10.4141 0.0109531 10.398 0.0270742 10.3926L30.8422 0.00187267C30.8499 -0.000624224 30.8576 -0.000624224 30.8654 0.00187267L61.6806 10.3926C61.6968 10.398 61.7076 10.4141 61.7076 10.4323V16.6024C61.7076 16.6253 61.6902 16.644 61.669 16.644Z" fill="#151515"/>
<path d="M0 62.4204C0 64.7187 1.86316 66.5818 4.16149 66.5818H57.5461C59.8444 66.5818 61.7076 64.7187 61.7076 62.4204C61.7076 60.122 59.8444 58.2589 57.5461 58.2589H4.16149C1.86317 58.2589 0 60.122 0 62.4204Z" fill="#151515"/>
<path d="M7.7135 50.2406C7.7135 52.3706 9.44022 54.0974 11.5702 54.0974C13.7002 54.0974 15.4269 52.3706 15.4269 50.2406V24.6621C15.4269 22.5321 13.7002 20.8054 11.5702 20.8054C9.44022 20.8054 7.7135 22.5321 7.7135 24.6621V50.2406Z" fill="#151515"/>
<path d="M46.2808 50.2406C46.2808 52.3706 48.0075 54.0974 50.1375 54.0974C52.2675 54.0974 53.9942 52.3706 53.9942 50.2406V24.6621C53.9942 22.5321 52.2675 20.8054 50.1375 20.8054C48.0075 20.8054 46.2808 22.5321 46.2808 24.6621V50.2406Z" fill="#151515"/>
<path d="M26.9971 50.2406C26.9971 52.3706 28.7238 54.0974 30.8538 54.0974C32.9838 54.0974 34.7105 52.3706 34.7105 50.2406V24.6621C34.7105 22.5321 32.9838 20.8054 30.8538 20.8054C28.7238 20.8054 26.9971 22.5321 26.9971 24.6621V50.2406Z" fill="#151515"/>
</svg>
