<svg width="75" height="67" viewBox="0 0 75 67" fill="none" xmlns="http://www.w3.org/2000/svg">
<path d="M71.1194 1.27226C70.3902 -0.363263 68.3067 -0.428684 67.4342 1.11525C63.3973 8.16762 56.1701 12.5639 47.9141 12.5639H37.4964C23.693 12.5639 12.4941 23.8163 12.4941 37.6855C12.4941 38.6014 12.5982 39.4781 12.6894 40.3678C20.9975 34.3883 32.9908 29.3117 49.9976 29.3117C51.1436 29.3117 52.0812 30.2537 52.0812 31.4051C52.0812 32.5565 51.1436 33.4986 49.9976 33.4986C17.2601 33.4986 3.37861 53.6613 0.305405 61.2371C-0.554052 63.3698 0.46167 65.8034 2.58427 66.6801C4.71989 67.5698 7.14199 66.5362 8.02749 64.4165C8.22282 63.9455 10.7491 58.1492 17.3904 52.5623C21.6095 58.3062 29.6311 63.7885 40.166 62.6632C60.6106 61.1716 75 42.7491 75 20.192C75 13.6237 73.5936 6.81995 71.1194 1.27226Z" fill="#151515"/>
</svg>
