<svg width="57" height="68" viewBox="0 0 57 68" fill="none" xmlns="http://www.w3.org/2000/svg">
<path d="M28.0111 18.1694C33.0284 18.1694 37.0957 14.102 37.0957 9.08468C37.0957 4.06735 33.0284 0 28.0111 0C22.9938 0 18.9264 4.06735 18.9264 9.08468C18.9264 14.102 22.9938 18.1694 28.0111 18.1694Z" fill="#151515"/>
<path d="M11.418 33.3238C14.2182 33.3188 17.7214 33.3143 21.9548 33.312V30.2823C21.9548 26.9375 24.6663 24.2258 28.0113 24.2258C31.3561 24.2258 34.0677 26.9375 34.0677 30.2823V33.312C38.3012 33.3143 41.8044 33.3188 44.6046 33.3238C44.094 30.2774 43.4266 27.7566 42.8484 25.9088C42.0706 23.4223 40.0759 21.553 37.4645 21.1187C35.337 20.7649 32.2352 20.4406 28.0119 20.4406C23.7884 20.4406 20.6863 20.7649 18.5587 21.1187C15.9468 21.553 13.9518 23.4224 13.1739 25.9092C12.5958 27.7572 11.9285 30.2777 11.418 33.3238Z" fill="#151515"/>
<path d="M30.2823 30.2823C30.2823 29.028 29.2654 28.0111 28.0111 28.0111C26.7568 28.0111 25.7399 29.028 25.7399 30.2823V37.0967C13.0701 37.1062 5.87333 37.1948 3.605 37.228C2.40986 37.2454 0.883682 37.9092 0.378695 39.5745C0.169747 40.2636 0 41.1954 0 42.3952C0 43.595 0.169747 44.5267 0.378695 45.2158C0.883697 46.8812 2.40988 47.545 3.605 47.5624C3.85738 47.5662 4.17077 47.5704 4.54593 47.5754C5.40646 54.7096 6.18194 60.2161 6.57264 62.8967C6.87846 64.9947 8.59986 66.6008 10.7278 66.7418C13.9922 66.9582 21.2014 67.378 28.0111 67.378C34.8208 67.378 42.0299 66.9582 45.2944 66.7418C47.4225 66.6008 49.1437 64.9947 49.4496 62.8967C49.8402 60.2161 50.6157 54.7096 51.4762 47.5754C51.8514 47.5704 52.1648 47.5662 52.4172 47.5624C53.6123 47.545 55.1385 46.8812 55.6435 45.2158C55.8524 44.5267 56.0222 43.595 56.0222 42.3952C56.0222 41.1954 55.8524 40.2636 55.6435 39.5745C55.1385 37.9092 53.6123 37.2454 52.4172 37.228C50.1488 37.1948 42.952 37.1062 30.2823 37.0967V30.2823Z" fill="#151515"/>
</svg>
