<svg width="59" height="67" viewBox="0 0 59 67" fill="none" xmlns="http://www.w3.org/2000/svg">
<path d="M57.0092 52.616L41.7264 28.0358V8.34553H42.7696C44.5039 8.34553 45.8992 6.95026 45.8992 5.21596V3.12958C45.8992 1.39527 44.5039 0 42.7696 0H15.6467C13.9123 0 12.5171 1.39527 12.5171 3.12958V5.21596C12.5171 6.95026 13.9123 8.34553 15.6467 8.34553H16.6898V28.0358L1.40709 52.616C-2.4136 58.7578 1.99388 66.7643 9.24406 66.7643H49.1722C56.4354 66.7643 60.8299 58.7447 57.0092 52.616ZM17.9808 41.7277L24.266 31.6087C24.7485 30.9306 25.0223 30.0961 25.0223 29.2094V8.34553H33.3679V29.2094C33.3679 30.1091 33.6548 30.9306 34.1242 31.6087L40.4094 41.7277H17.9808Z" fill="#151515"/>
</svg>
