<svg width="61" height="61" viewBox="0 0 61 61" fill="none" xmlns="http://www.w3.org/2000/svg">
<path d="M30.5 0.000112812C24.4677 9.40855e-05 18.5708 1.78887 13.5551 5.14024C8.53943 8.49162 4.63016 13.2551 2.32169 18.8282C0.0132125 24.4013 -0.590787 30.5339 0.586066 36.4503C1.76292 42.3667 4.66777 47.8013 8.93328 52.0668C14.6531 57.7866 22.4109 61 30.5 61C38.5891 61 46.3469 57.7866 52.0668 52.0668C57.7866 46.3469 61 38.5891 61 30.5C61 22.4109 57.7866 14.6531 52.0668 8.93328C49.2412 6.09224 45.8801 3.83985 42.1782 2.30647C38.4762 0.773089 34.5069 -0.0108207 30.5 0.000112812ZM11.6614 11.9777C12.018 12.4712 12.3631 12.9993 12.6965 13.5619C15.0682 17.5768 16.4865 22.8091 16.7612 28.4667H4.14416C4.6221 22.2546 7.28538 16.4127 11.6614 11.9777ZM11.6614 49.0224C7.28538 44.5874 4.6221 38.7455 4.14416 32.5333H16.7612C16.4865 38.191 15.0682 43.4232 12.6965 47.4381C12.3639 48.0012 12.0189 48.5293 11.6614 49.0224ZM28.4667 56.8559C23.4937 56.4762 18.7313 54.6897 14.7355 51.705C15.2626 50.9992 15.7507 50.2653 16.1978 49.5064C18.928 44.8847 20.5483 38.9204 20.8327 32.5333H28.4667V56.8559ZM28.4667 28.4667H20.8327C20.5483 22.0799 18.928 16.1154 16.1978 11.4936C15.7507 10.7347 15.2626 10.0008 14.7355 9.29509C18.7313 6.31036 23.4937 4.52386 28.4667 4.14416V28.4667ZM32.5333 4.14416C37.5064 4.52386 42.2687 6.31036 46.2645 9.29509C45.7375 10.0008 45.2493 10.7347 44.8022 11.4936C42.0721 16.1154 40.4518 22.0796 40.1674 28.4667H32.5333V4.14416ZM32.5333 56.8559V32.5333H40.1674C40.4518 38.9202 42.0721 44.8847 44.8022 49.5064C45.2493 50.2653 45.7375 50.9992 46.2645 51.705C42.2687 54.6897 37.5064 56.4762 32.5333 56.8559ZM49.3387 49.0224C48.982 48.5289 48.637 48.0009 48.3036 47.4381C45.9318 43.4232 44.5136 38.191 44.2388 32.5333H56.8559C56.3779 38.7455 53.7147 44.5874 49.3387 49.0224ZM44.2388 28.4667C44.5136 22.8091 45.9318 17.5768 48.3036 13.5619C48.6361 12.9988 48.9812 12.4708 49.3387 11.9777C53.7147 16.4127 56.3779 22.2546 56.8559 28.4667H44.2388Z" fill="black"/>
</svg>
