<svg width="68" height="68" viewBox="0 0 68 68" fill="none" xmlns="http://www.w3.org/2000/svg">
<path d="M33.0953 0.0201726C29.9247 0.549439 21.7504 1.39295 15.6734 3.24537C9.59641 5.62704 4.04782 9.59652 1.14142 11.1843C-0.972323 12.2428 0.348768 14.0456 1.14142 15.8981C8.0111 36.2747 17.5064 42.3446 23.8477 43.9324C24.3761 40.4922 25.4825 36.5889 27.0678 32.3548C26.5394 32.3548 26.2752 32.6029 25.7467 32.6029C21.7835 33.9261 18.0679 38.9706 18.0679 38.9706C18.0679 38.9706 18.6129 30.7505 24.4257 28.6334C25.7467 28.1042 27.3155 28.1207 28.6366 28.3853L30.2054 25.1601C30.2054 24.8955 30.4531 24.9286 30.4531 24.664C30.9816 23.0762 32.3522 19.6194 36.3155 19.6194C36.8439 19.6194 37.6035 19.603 38.132 19.8675C38.6604 20.3968 39.1723 20.4133 39.7008 20.9426C39.4366 16.1792 38.4457 10.622 36.0678 3.74155C35.5393 2.15376 35.4733 -0.244461 33.0953 0.0201726ZM29.71 14.0787C32.8806 14.0787 35.2421 16.4769 35.2421 16.4769C35.2421 16.4769 32.8806 19.1232 29.71 19.1232C26.5394 19.1232 24.178 16.725 24.178 16.725C24.178 16.725 26.8036 14.3433 29.71 14.0787ZM17.2422 19.0405C18.4642 18.9413 19.389 19.1232 19.389 19.1232C19.389 19.1232 18.8771 22.8115 16.4991 24.6639C14.1211 26.5164 10.3891 25.9871 10.3891 25.9871C10.3891 25.9871 10.901 22.2988 13.2789 20.4464C14.4679 19.5202 16.0202 19.1398 17.2422 19.0405ZM36.3155 23.6716C34.708 23.6172 34.5981 25.6729 33.6733 27.0622C19.4055 56.1716 31.7907 65.9299 34.1687 67.2531C36.5467 68.3116 52.1851 72.033 66.4529 43.1882C67.5098 41.865 69.062 39.963 66.9483 38.6398C64.3061 36.7874 58.4603 32.0406 52.9117 29.1296C47.3631 26.2187 40.2292 24.8955 37.0586 23.837C36.7613 23.7378 36.5451 23.6794 36.3155 23.6716ZM35.5724 38.0609C36.7283 37.9617 38.2476 37.9782 39.7008 38.6398C42.343 39.963 43.664 43.1882 43.664 43.1882C43.664 43.1882 40.543 44.5279 37.6366 42.9401C34.9944 41.6169 33.6733 38.3917 33.6733 38.3917C33.6733 38.3917 34.4164 38.1602 35.5724 38.0609ZM49.1961 44.6767C50.3851 44.5775 51.9209 44.594 53.242 45.2556C56.1484 46.5787 57.2052 50.052 57.2052 50.052C57.2052 50.052 53.7374 51.1436 51.0952 49.5559C48.1888 48.2327 47.1319 45.0075 47.1319 45.0075C47.1319 45.0075 48.0071 44.7759 49.1961 44.6767ZM32.3522 47.6538C32.3522 47.6538 35.2421 53.4922 39.2054 55.3447C43.1686 57.1971 49.5264 55.8408 49.5264 55.8408C49.5264 55.8408 42.8714 62.4566 37.0586 59.8103C31.51 57.164 32.3522 47.6538 32.3522 47.6538Z" fill="#151515"/>
</svg>
