<svg width="91" height="69" viewBox="0 0 91 69" fill="none" xmlns="http://www.w3.org/2000/svg">
<path d="M88.6707 19.8628H78.053L75.102 12.4852C72.0694 4.90008 64.8318 0 56.6615 0H34.1385C25.9699 0 18.7307 4.90008 15.6963 12.4852L12.7452 19.8628H2.12928C0.74421 19.8628 -0.271985 21.1645 0.0649732 22.507L1.12905 26.7633C1.36492 27.7104 2.21618 28.3754 3.19336 28.3754H6.7527C4.37094 30.4557 2.8369 33.4794 2.8369 36.888V45.4007C2.8369 48.2595 3.92935 50.8399 5.67444 52.8368V62.4259C5.67444 65.5596 8.21581 68.101 11.3495 68.101H17.0246C20.1583 68.101 22.6997 65.5596 22.6997 62.4259V56.7508H68.1003V62.4259C68.1003 65.5596 70.6417 68.101 73.7754 68.101H79.4505C82.5842 68.101 85.1256 65.5596 85.1256 62.4259V52.8368C86.8707 50.8416 87.9631 48.2612 87.9631 45.4007V36.888C87.9631 33.4794 86.4291 30.4557 84.0491 28.3754H87.6084C88.5856 28.3754 89.4369 27.7104 89.6727 26.7633L90.7368 22.507C91.072 21.1645 90.0558 19.8628 88.6707 19.8628ZM26.2342 16.7007C27.527 13.4694 30.6572 11.3502 34.1385 11.3502H56.6615C60.1428 11.3502 63.273 13.4694 64.5658 16.7007L68.1003 25.5379H22.6997L26.2342 16.7007ZM17.0246 45.3652C13.6196 45.3652 11.3495 43.1022 11.3495 39.7078C11.3495 36.3134 13.6196 34.0505 17.0246 34.0505C20.4296 34.0505 25.5372 39.1421 25.5372 42.5365C25.5372 45.9309 20.4296 45.3652 17.0246 45.3652ZM73.7754 45.3652C70.3704 45.3652 65.2628 45.9309 65.2628 42.5365C65.2628 39.1421 70.3704 34.0505 73.7754 34.0505C77.1805 34.0505 79.4505 36.3134 79.4505 39.7078C79.4505 43.1022 77.1805 45.3652 73.7754 45.3652Z" fill="#151515"/>
</svg>
