<svg width="60" height="42" viewBox="0 0 60 42" fill="none" xmlns="http://www.w3.org/2000/svg">
<path d="M38.9956 0C50.596 0 60 9.40401 60 21.0044C60 32.3632 50.9837 41.6161 39.7177 41.9967L38.9956 42.0089H21.0044C9.40401 42.0089 0 32.6049 0 21.0044C0 9.64569 9.01626 0.392787 20.2823 0.0121791L21.0044 0H38.9956ZM38.2518 22.5048C36.1802 22.5048 34.501 24.184 34.501 26.2556C34.501 28.3271 36.1802 30.0063 38.2518 30.0063C40.3233 30.0063 42.0025 28.3271 42.0025 26.2556C42.0025 24.184 40.3233 22.5048 38.2518 22.5048ZM17.9975 12.0025C16.8581 12.0025 15.9165 12.8492 15.7675 13.9476L15.747 14.253V18.748L11.246 18.7502C10.0031 18.7502 8.99556 19.7578 8.99556 21.0007C8.99556 22.14 9.8422 23.0816 10.9407 23.2306L11.246 23.2512L15.747 23.2489V27.7559C15.747 28.9988 16.7546 30.0063 17.9975 30.0063C19.1368 30.0063 20.0784 29.1597 20.2274 28.0612L20.2479 27.7559V23.2489L24.7489 23.2512C25.9918 23.2512 26.9994 22.2436 26.9994 21.0007C26.9994 19.8614 26.1527 18.9198 25.0543 18.7707L24.7489 18.7502L20.2479 18.748V14.253C20.2479 13.0101 19.2404 12.0025 17.9975 12.0025ZM44.253 12.0025C42.1815 12.0025 40.5022 13.6818 40.5022 15.7533C40.5022 17.8248 42.1815 19.5041 44.253 19.5041C46.3245 19.5041 48.0038 17.8248 48.0038 15.7533C48.0038 13.6818 46.3245 12.0025 44.253 12.0025Z" fill="#151515"/>
</svg>
